<?xml version="1.0" encoding="UTF-8" standalone="no"?>
<!DOCTYPE svg PUBLIC "-//W3C//DTD SVG 1.1//EN"
 "http://www.w3.org/Graphics/SVG/1.1/DTD/svg11.dtd">
<!-- Generated by graphviz version 2.40.1 (20161225.0304)
 -->
<!-- Title: dependencies Pages: 1 -->
<svg width="504pt" height="211pt"
 viewBox="0.00 0.00 504.00 211.00" xmlns="http://www.w3.org/2000/svg" xmlns:xlink="http://www.w3.org/1999/xlink">
<g id="graph0" class="graph" transform="scale(1 1) rotate(0) translate(4 207)">
<title>dependencies</title>
<polygon fill="#ffffff" stroke="transparent" points="-4,4 -4,-207 500,-207 500,4 -4,4"/>
<text text-anchor="start" x="227.0091" y="-42.4" font-family="sans-serif" font-weight="bold" font-size="14.00" fill="#000000">Legend</text>
<polygon fill="#ffffb3" stroke="transparent" points="14,-10 14,-30 34,-30 34,-10 14,-10"/>
<text text-anchor="start" x="37.629" y="-15.4" font-family="sans-serif" font-size="14.00" fill="#000000"> &#160;Declarations</text>
<polygon fill="#8dd3c7" stroke="transparent" points="127,-10 127,-30 147,-30 147,-10 127,-10"/>
<text text-anchor="start" x="150.7251" y="-15.4" font-family="sans-serif" font-size="14.00" fill="#000000"> &#160;Module</text>
<polygon fill="#80b1d3" stroke="transparent" points="213,-10 213,-30 233,-30 233,-10 213,-10"/>
<text text-anchor="start" x="236.7812" y="-15.4" font-family="sans-serif" font-size="14.00" fill="#000000"> &#160;Bootstrap</text>
<polygon fill="#fdb462" stroke="transparent" points="310,-10 310,-30 330,-30 330,-10 310,-10"/>
<text text-anchor="start" x="333.6732" y="-15.4" font-family="sans-serif" font-size="14.00" fill="#000000"> &#160;Providers</text>
<polygon fill="#fb8072" stroke="transparent" points="406,-10 406,-30 426,-30 426,-10 406,-10"/>
<text text-anchor="start" x="429.7258" y="-15.4" font-family="sans-serif" font-size="14.00" fill="#000000"> &#160;Exports</text>
<g id="clust1" class="cluster">
<title>cluster_LoggingModule</title>
<polygon fill="none" stroke="#000000" stroke-dasharray="1,5" points="123,-70 123,-195 373,-195 373,-70 123,-70"/>
</g>
<g id="clust6" class="cluster">
<title>cluster_LoggingModule_providers</title>
<polygon fill="none" stroke="#000000" points="131,-78 131,-130 365,-130 365,-78 131,-78"/>
</g>
<!-- Logger -->
<g id="node1" class="node">
<title>Logger</title>
<ellipse fill="#fdb462" stroke="#000000" cx="318" cy="-104" rx="38.8459" ry="18"/>
<text text-anchor="middle" x="318" y="-99.8" font-family="Times,serif" font-size="14.00" fill="#000000">Logger</text>
</g>
<!-- LoggingModule -->
<g id="node3" class="node">
<title>LoggingModule</title>
<polygon fill="#8dd3c7" stroke="#000000" points="309.493,-187 306.493,-191 285.493,-191 282.493,-187 202.507,-187 202.507,-151 309.493,-151 309.493,-187"/>
<text text-anchor="middle" x="256" y="-164.8" font-family="Times,serif" font-size="14.00" fill="#000000">LoggingModule</text>
</g>
<!-- Logger&#45;&gt;LoggingModule -->
<g id="edge1" class="edge">
<title>Logger&#45;&gt;LoggingModule</title>
<path fill="none" stroke="#000000" d="M294.2868,-118.4256C294.2868,-118.4256 294.2868,-140.8939 294.2868,-140.8939"/>
<polygon fill="#000000" stroke="#000000" points="290.7869,-140.8938 294.2868,-150.8939 297.7869,-140.8939 290.7869,-140.8938"/>
</g>
<!-- LogManager -->
<g id="node2" class="node">
<title>LogManager</title>
<ellipse fill="#fdb462" stroke="#000000" cx="200" cy="-104" rx="60.8178" ry="18"/>
<text text-anchor="middle" x="200" y="-99.8" font-family="Times,serif" font-size="14.00" fill="#000000">LogManager</text>
</g>
<!-- LogManager&#45;&gt;LoggingModule -->
<g id="edge2" class="edge">
<title>LogManager&#45;&gt;LoggingModule</title>
<path fill="none" stroke="#000000" d="M231.7062,-119.4041C231.7062,-119.4041 231.7062,-140.9397 231.7062,-140.9397"/>
<polygon fill="#000000" stroke="#000000" points="228.2063,-140.9397 231.7062,-150.9397 235.2063,-140.9398 228.2063,-140.9397"/>
</g>
</g>
</svg>
