<?xml version="1.0" encoding="UTF-8" standalone="no"?>
<!DOCTYPE svg PUBLIC "-//W3C//DTD SVG 1.1//EN"
 "http://www.w3.org/Graphics/SVG/1.1/DTD/svg11.dtd">
<!-- Generated by graphviz version 2.40.1 (20161225.0304)
 -->
<!-- Title: dependencies Pages: 1 -->
<svg width="504pt" height="284pt"
 viewBox="0.00 0.00 504.00 284.00" xmlns="http://www.w3.org/2000/svg" xmlns:xlink="http://www.w3.org/1999/xlink">
<g id="graph0" class="graph" transform="scale(1 1) rotate(0) translate(4 280)">
<title>dependencies</title>
<polygon fill="#ffffff" stroke="transparent" points="-4,4 -4,-280 500,-280 500,4 -4,4"/>
<text text-anchor="start" x="227.0091" y="-42.4" font-family="sans-serif" font-weight="bold" font-size="14.00" fill="#000000">Legend</text>
<polygon fill="#ffffb3" stroke="transparent" points="14,-10 14,-30 34,-30 34,-10 14,-10"/>
<text text-anchor="start" x="37.629" y="-15.4" font-family="sans-serif" font-size="14.00" fill="#000000"> &#160;Declarations</text>
<polygon fill="#8dd3c7" stroke="transparent" points="127,-10 127,-30 147,-30 147,-10 127,-10"/>
<text text-anchor="start" x="150.7251" y="-15.4" font-family="sans-serif" font-size="14.00" fill="#000000"> &#160;Module</text>
<polygon fill="#80b1d3" stroke="transparent" points="213,-10 213,-30 233,-30 233,-10 213,-10"/>
<text text-anchor="start" x="236.7812" y="-15.4" font-family="sans-serif" font-size="14.00" fill="#000000"> &#160;Bootstrap</text>
<polygon fill="#fdb462" stroke="transparent" points="310,-10 310,-30 330,-30 330,-10 310,-10"/>
<text text-anchor="start" x="333.6732" y="-15.4" font-family="sans-serif" font-size="14.00" fill="#000000"> &#160;Providers</text>
<polygon fill="#fb8072" stroke="transparent" points="406,-10 406,-30 426,-30 426,-10 406,-10"/>
<text text-anchor="start" x="429.7258" y="-15.4" font-family="sans-serif" font-size="14.00" fill="#000000"> &#160;Exports</text>
<g id="clust7" class="cluster">
<title>cluster_LogviewAppModule</title>
<polygon fill="none" stroke="#000000" stroke-dasharray="1,5" points="116.5,-70 116.5,-268 379.5,-268 379.5,-70 116.5,-70"/>
</g>
<g id="clust9" class="cluster">
<title>cluster_LogviewAppModule_imports</title>
<polygon fill="none" stroke="#000000" points="124.5,-78 124.5,-130 371.5,-130 371.5,-78 124.5,-78"/>
</g>
<g id="clust11" class="cluster">
<title>cluster_LogviewAppModule_bootstrap</title>
<polygon fill="none" stroke="#000000" points="172.5,-208 172.5,-260 322.5,-260 322.5,-208 172.5,-208"/>
</g>
<!-- BrowserModule -->
<g id="node1" class="node">
<title>BrowserModule</title>
<polygon fill="#8dd3c7" stroke="#000000" points="363.9734,-122 360.9734,-126 339.9734,-126 336.9734,-122 257.0266,-122 257.0266,-86 363.9734,-86 363.9734,-122"/>
<text text-anchor="middle" x="310.5" y="-99.8" font-family="Times,serif" font-size="14.00" fill="#000000">BrowserModule</text>
</g>
<!-- LogviewAppModule -->
<g id="node3" class="node">
<title>LogviewAppModule</title>
<polygon fill="#8dd3c7" stroke="#000000" points="314.4215,-187 311.4215,-191 290.4215,-191 287.4215,-187 180.5785,-187 180.5785,-151 314.4215,-151 314.4215,-187"/>
<text text-anchor="middle" x="247.5" y="-164.8" font-family="Times,serif" font-size="14.00" fill="#000000">LogviewAppModule</text>
</g>
<!-- BrowserModule&#45;&gt;LogviewAppModule -->
<g id="edge1" class="edge">
<title>BrowserModule&#45;&gt;LogviewAppModule</title>
<path fill="none" stroke="#000000" d="M285.6119,-122.1061C285.6119,-122.1061 285.6119,-140.991 285.6119,-140.991"/>
<polygon fill="#000000" stroke="#000000" points="282.1119,-140.9909 285.6119,-150.991 289.1119,-140.991 282.1119,-140.9909"/>
</g>
<!-- LoggingModule -->
<g id="node2" class="node">
<title>LoggingModule</title>
<polygon fill="#8dd3c7" stroke="#000000" points="238.993,-122 235.993,-126 214.993,-126 211.993,-122 132.007,-122 132.007,-86 238.993,-86 238.993,-122"/>
<text text-anchor="middle" x="185.5" y="-99.8" font-family="Times,serif" font-size="14.00" fill="#000000">LoggingModule</text>
</g>
<!-- LoggingModule&#45;&gt;LogviewAppModule -->
<g id="edge2" class="edge">
<title>LoggingModule&#45;&gt;LogviewAppModule</title>
<path fill="none" stroke="#000000" d="M209.8931,-122.1061C209.8931,-122.1061 209.8931,-140.991 209.8931,-140.991"/>
<polygon fill="#000000" stroke="#000000" points="206.3931,-140.9909 209.8931,-150.991 213.3931,-140.991 206.3931,-140.9909"/>
</g>
<!-- LogviewComponent  -->
<g id="node4" class="node">
<title>LogviewComponent </title>
<polygon fill="#80b1d3" stroke="#000000" points="314.5974,-252 180.4026,-252 180.4026,-216 314.5974,-216 314.5974,-252"/>
<text text-anchor="middle" x="247.5" y="-229.8" font-family="Times,serif" font-size="14.00" fill="#000000">LogviewComponent </text>
</g>
<!-- LogviewAppModule&#45;&gt;LogviewComponent  -->
<g id="edge3" class="edge">
<title>LogviewAppModule&#45;&gt;LogviewComponent </title>
<path fill="none" stroke="#000000" stroke-dasharray="1,5" d="M247.5,-187.1061C247.5,-187.1061 247.5,-205.991 247.5,-205.991"/>
<polygon fill="#000000" stroke="#000000" points="244.0001,-205.9909 247.5,-215.991 251.0001,-205.991 244.0001,-205.9909"/>
</g>
</g>
</svg>
