<?xml version="1.0" standalone="no"?>
<!DOCTYPE svg PUBLIC "-//W3C//DTD SVG 20010904//EN"
 "http://www.w3.org/TR/2001/REC-SVG-20010904/DTD/svg10.dtd">
<svg version="1.0" xmlns="http://www.w3.org/2000/svg"
 width="200.000000pt" height="200.000000pt" viewBox="0 0 200.000000 200.000000"
 preserveAspectRatio="xMidYMid meet">
<metadata>
Created by potrace 1.11, written by Peter Selinger 2001-2013
</metadata>
<g transform="translate(0.000000,200.000000) scale(0.100000,-0.100000)"
fill="#000000" stroke="none">
<path d="M328 1900 c-95 -9 -218 -39 -224 -54 -2 -6 2 -34 11 -61 19 -64 19
-133 0 -199 -13 -43 -15 -116 -13 -426 l3 -373 31 -18 c17 -9 57 -25 88 -35
55 -17 57 -17 83 2 15 11 57 79 97 157 39 75 79 139 88 142 27 9 84 95 100
148 11 38 17 46 25 35 16 -19 100 -189 108 -218 4 -14 11 -30 16 -36 28 -34
112 -486 97 -522 -1 -5 -57 3 -123 18 -66 15 -193 44 -282 64 -199 44 -259 46
-302 10 -49 -41 -45 -66 74 -394 l13 -35 97 -5 c61 -3 99 -1 101 5 2 6 -4 45
-15 87 -12 53 -15 78 -7 78 6 0 88 -38 181 -85 l170 -86 555 0 c305 1 567 1
583 1 l27 0 0 280 c0 300 1 295 -55 385 -34 56 -32 65 15 65 l40 0 0 65 0 65
-84 0 -83 0 -31 50 -31 50 114 0 115 0 0 70 0 70 -158 0 -159 0 -31 44 c-18
24 -32 47 -32 50 0 3 86 6 190 6 l190 0 0 70 0 70 -244 0 -244 0 -42 48 -42
47 286 3 286 2 0 65 0 65 -353 0 -353 0 -68 53 -69 52 422 3 421 2 0 65 0 65
-752 -1 c-414 -1 -788 -5 -830 -9z"/>
</g>
</svg>
