<?xml version="1.0" encoding="UTF-8" standalone="no"?>
<!DOCTYPE svg PUBLIC "-//W3C//DTD SVG 1.1//EN"
 "http://www.w3.org/Graphics/SVG/1.1/DTD/svg11.dtd">
<!-- Generated by graphviz version 2.40.1 (20161225.0304)
 -->
<!-- Title: dependencies Pages: 1 -->
<svg width="504pt" height="284pt"
 viewBox="0.00 0.00 504.00 284.00" xmlns="http://www.w3.org/2000/svg" xmlns:xlink="http://www.w3.org/1999/xlink">
<g id="graph0" class="graph" transform="scale(1 1) rotate(0) translate(4 280)">
<title>dependencies</title>
<polygon fill="#ffffff" stroke="transparent" points="-4,4 -4,-280 500,-280 500,4 -4,4"/>
<text text-anchor="start" x="227.0091" y="-42.4" font-family="sans-serif" font-weight="bold" font-size="14.00" fill="#000000">Legend</text>
<polygon fill="#ffffb3" stroke="transparent" points="14,-10 14,-30 34,-30 34,-10 14,-10"/>
<text text-anchor="start" x="37.629" y="-15.4" font-family="sans-serif" font-size="14.00" fill="#000000"> &#160;Declarations</text>
<polygon fill="#8dd3c7" stroke="transparent" points="127,-10 127,-30 147,-30 147,-10 127,-10"/>
<text text-anchor="start" x="150.7251" y="-15.4" font-family="sans-serif" font-size="14.00" fill="#000000"> &#160;Module</text>
<polygon fill="#80b1d3" stroke="transparent" points="213,-10 213,-30 233,-30 233,-10 213,-10"/>
<text text-anchor="start" x="236.7812" y="-15.4" font-family="sans-serif" font-size="14.00" fill="#000000"> &#160;Bootstrap</text>
<polygon fill="#fdb462" stroke="transparent" points="310,-10 310,-30 330,-30 330,-10 310,-10"/>
<text text-anchor="start" x="333.6732" y="-15.4" font-family="sans-serif" font-size="14.00" fill="#000000"> &#160;Providers</text>
<polygon fill="#fb8072" stroke="transparent" points="406,-10 406,-30 426,-30 426,-10 406,-10"/>
<text text-anchor="start" x="429.7258" y="-15.4" font-family="sans-serif" font-size="14.00" fill="#000000"> &#160;Exports</text>
<g id="clust1" class="cluster">
<title>cluster_LogviewAppModule</title>
<polygon fill="none" stroke="#000000" stroke-dasharray="1,5" points="38.5,-70 38.5,-268 457.5,-268 457.5,-70 38.5,-70"/>
</g>
<g id="clust2" class="cluster">
<title>cluster_LogviewAppModule_declarations</title>
<polygon fill="none" stroke="#000000" points="301.5,-78 301.5,-130 449.5,-130 449.5,-78 301.5,-78"/>
</g>
<g id="clust4" class="cluster">
<title>cluster_LogviewAppModule_imports</title>
<polygon fill="none" stroke="#000000" points="46.5,-78 46.5,-130 293.5,-130 293.5,-78 46.5,-78"/>
</g>
<g id="clust6" class="cluster">
<title>cluster_LogviewAppModule_bootstrap</title>
<polygon fill="none" stroke="#000000" points="157.5,-208 157.5,-260 307.5,-260 307.5,-208 157.5,-208"/>
</g>
<!-- LogviewComponent -->
<g id="node1" class="node">
<title>LogviewComponent</title>
<polygon fill="#ffffb3" stroke="#000000" points="441.0968,-122 309.9032,-122 309.9032,-86 441.0968,-86 441.0968,-122"/>
<text text-anchor="middle" x="375.5" y="-99.8" font-family="Times,serif" font-size="14.00" fill="#000000">LogviewComponent</text>
</g>
<!-- LogviewAppModule -->
<g id="node2" class="node">
<title>LogviewAppModule</title>
<polygon fill="#8dd3c7" stroke="#000000" points="299.4215,-187 296.4215,-191 275.4215,-191 272.4215,-187 165.5785,-187 165.5785,-151 299.4215,-151 299.4215,-187"/>
<text text-anchor="middle" x="232.5" y="-164.8" font-family="Times,serif" font-size="14.00" fill="#000000">LogviewAppModule</text>
</g>
<!-- LogviewComponent&#45;&gt;LogviewAppModule -->
<g id="edge1" class="edge">
<title>LogviewComponent&#45;&gt;LogviewAppModule</title>
<path fill="none" stroke="#000000" d="M309.7758,-104C299.714,-104 292.5986,-104 292.5986,-104 292.5986,-104 292.5986,-140.8939 292.5986,-140.8939"/>
<polygon fill="#000000" stroke="#000000" points="289.0986,-140.8938 292.5986,-150.8939 296.0986,-140.8939 289.0986,-140.8938"/>
</g>
<!-- LogviewComponent  -->
<g id="node5" class="node">
<title>LogviewComponent </title>
<polygon fill="#80b1d3" stroke="#000000" points="299.5974,-252 165.4026,-252 165.4026,-216 299.5974,-216 299.5974,-252"/>
<text text-anchor="middle" x="232.5" y="-229.8" font-family="Times,serif" font-size="14.00" fill="#000000">LogviewComponent </text>
</g>
<!-- LogviewAppModule&#45;&gt;LogviewComponent  -->
<g id="edge4" class="edge">
<title>LogviewAppModule&#45;&gt;LogviewComponent </title>
<path fill="none" stroke="#000000" stroke-dasharray="1,5" d="M232.5,-187.1061C232.5,-187.1061 232.5,-205.991 232.5,-205.991"/>
<polygon fill="#000000" stroke="#000000" points="229.0001,-205.9909 232.5,-215.991 236.0001,-205.991 229.0001,-205.9909"/>
</g>
<!-- BrowserModule -->
<g id="node3" class="node">
<title>BrowserModule</title>
<polygon fill="#8dd3c7" stroke="#000000" points="285.9734,-122 282.9734,-126 261.9734,-126 258.9734,-122 179.0266,-122 179.0266,-86 285.9734,-86 285.9734,-122"/>
<text text-anchor="middle" x="232.5" y="-99.8" font-family="Times,serif" font-size="14.00" fill="#000000">BrowserModule</text>
</g>
<!-- BrowserModule&#45;&gt;LogviewAppModule -->
<g id="edge2" class="edge">
<title>BrowserModule&#45;&gt;LogviewAppModule</title>
<path fill="none" stroke="#000000" d="M232.5,-122.1061C232.5,-122.1061 232.5,-140.991 232.5,-140.991"/>
<polygon fill="#000000" stroke="#000000" points="229.0001,-140.9909 232.5,-150.991 236.0001,-140.991 229.0001,-140.9909"/>
</g>
<!-- LoggingModule -->
<g id="node4" class="node">
<title>LoggingModule</title>
<polygon fill="#8dd3c7" stroke="#000000" points="160.993,-122 157.993,-126 136.993,-126 133.993,-122 54.007,-122 54.007,-86 160.993,-86 160.993,-122"/>
<text text-anchor="middle" x="107.5" y="-99.8" font-family="Times,serif" font-size="14.00" fill="#000000">LoggingModule</text>
</g>
<!-- LoggingModule&#45;&gt;LogviewAppModule -->
<g id="edge3" class="edge">
<title>LoggingModule&#45;&gt;LogviewAppModule</title>
<path fill="none" stroke="#000000" d="M161.0965,-104C167.8222,-104 172.4015,-104 172.4015,-104 172.4015,-104 172.4015,-140.8939 172.4015,-140.8939"/>
<polygon fill="#000000" stroke="#000000" points="168.9015,-140.8938 172.4015,-150.8939 175.9015,-140.8939 168.9015,-140.8938"/>
</g>
</g>
</svg>
